<svg xmlns="http://www.w3.org/2000/svg" width="960" height="430"><g transform="translate(30,50)"><text x="0" y="0" style="text-anchor: end; font-size: 9pt; font-family: Consolas, courier; fill: #aaa;" transform="translate(-6,25.333333333333332)" class="dayLabel mono axis axis-workweek">Mo</text><text x="0" y="38" style="text-anchor: end; font-size: 9pt; font-family: Consolas, courier; fill: #aaa;" transform="translate(-6,25.333333333333332)" class="dayLabel mono axis axis-workweek">Tu</text><text x="0" y="76" style="text-anchor: end; font-size: 9pt; font-family: Consolas, courier; fill: #aaa;" transform="translate(-6,25.333333333333332)" class="dayLabel mono axis axis-workweek">We</text><text x="0" y="114" style="text-anchor: end; font-size: 9pt; font-family: Consolas, courier; fill: #aaa;" transform="translate(-6,25.333333333333332)" class="dayLabel mono axis axis-workweek">Th</text><text x="0" y="152" style="text-anchor: end; font-size: 9pt; font-family: Consolas, courier; fill: #aaa;" transform="translate(-6,25.333333333333332)" class="dayLabel mono axis axis-workweek">Fr</text><text x="0" y="190" style="text-anchor: end; font-size: 9pt; font-family: Consolas, courier; fill: #aaa;" transform="translate(-6,25.333333333333332)" class="dayLabel mono axis">Sa</text><text x="0" y="228" style="text-anchor: end; font-size: 9pt; font-family: Consolas, courier; fill: #aaa;" transform="translate(-6,25.333333333333332)" class="dayLabel mono axis">Su</text><text x="0" y="0" style="text-anchor: middle; font-size: 9pt; font-family: Consolas, courier; fill: #aaa;" transform="translate(19, -6)" class="timeLabel mono axis">1a</text><text x="38" y="0" style="text-anchor: middle; font-size: 9pt; font-family: Consolas, courier; fill: #aaa;" transform="translate(19, -6)" class="timeLabel mono axis">2a</text><text x="76" y="0" style="text-anchor: middle; font-size: 9pt; font-family: Consolas, courier; fill: #aaa;" transform="translate(19, -6)" class="timeLabel mono axis">3a</text><text x="114" y="0" style="text-anchor: middle; font-size: 9pt; font-family: Consolas, courier; fill: #aaa;" transform="translate(19, -6)" class="timeLabel mono axis">4a</text><text x="152" y="0" style="text-anchor: middle; font-size: 9pt; font-family: Consolas, courier; fill: #aaa;" transform="translate(19, -6)" class="timeLabel mono axis">5a</text><text x="190" y="0" style="text-anchor: middle; font-size: 9pt; font-family: Consolas, courier; fill: #aaa;" transform="translate(19, -6)" class="timeLabel mono axis">6a</text><text x="228" y="0" style="text-anchor: middle; font-size: 9pt; font-family: Consolas, courier; fill: #aaa;" transform="translate(19, -6)" class="timeLabel mono axis">7a</text><text x="266" y="0" style="text-anchor: middle; font-size: 9pt; font-family: Consolas, courier; fill: #aaa;" transform="translate(19, -6)" class="timeLabel mono axis axis-worktime">8a</text><text x="304" y="0" style="text-anchor: middle; font-size: 9pt; font-family: Consolas, courier; fill: #aaa;" transform="translate(19, -6)" class="timeLabel mono axis axis-worktime">9a</text><text x="342" y="0" style="text-anchor: middle; font-size: 9pt; font-family: Consolas, courier; fill: #aaa;" transform="translate(19, -6)" class="timeLabel mono axis axis-worktime">10a</text><text x="380" y="0" style="text-anchor: middle; font-size: 9pt; font-family: Consolas, courier; fill: #aaa;" transform="translate(19, -6)" class="timeLabel mono axis axis-worktime">11a</text><text x="418" y="0" style="text-anchor: middle; font-size: 9pt; font-family: Consolas, courier; fill: #aaa;" transform="translate(19, -6)" class="timeLabel mono axis axis-worktime">12a</text><text x="456" y="0" style="text-anchor: middle; font-size: 9pt; font-family: Consolas, courier; fill: #aaa;" transform="translate(19, -6)" class="timeLabel mono axis axis-worktime">1p</text><text x="494" y="0" style="text-anchor: middle; font-size: 9pt; font-family: Consolas, courier; fill: #aaa;" transform="translate(19, -6)" class="timeLabel mono axis axis-worktime">2p</text><text x="532" y="0" style="text-anchor: middle; font-size: 9pt; font-family: Consolas, courier; fill: #aaa;" transform="translate(19, -6)" class="timeLabel mono axis axis-worktime">3p</text><text x="570" y="0" style="text-anchor: middle; font-size: 9pt; font-family: Consolas, courier; fill: #aaa;" transform="translate(19, -6)" class="timeLabel mono axis axis-worktime">4p</text><text x="608" y="0" style="text-anchor: middle; font-size: 9pt; font-family: Consolas, courier; fill: #aaa;" transform="translate(19, -6)" class="timeLabel mono axis axis-worktime">5p</text><text x="646" y="0" style="text-anchor: middle; font-size: 9pt; font-family: Consolas, courier; fill: #aaa;" transform="translate(19, -6)" class="timeLabel mono axis">6p</text><text x="684" y="0" style="text-anchor: middle; font-size: 9pt; font-family: Consolas, courier; fill: #aaa;" transform="translate(19, -6)" class="timeLabel mono axis">7p</text><text x="722" y="0" style="text-anchor: middle; font-size: 9pt; font-family: Consolas, courier; fill: #aaa;" transform="translate(19, -6)" class="timeLabel mono axis">8p</text><text x="760" y="0" style="text-anchor: middle; font-size: 9pt; font-family: Consolas, courier; fill: #aaa;" transform="translate(19, -6)" class="timeLabel mono axis">9p</text><text x="798" y="0" style="text-anchor: middle; font-size: 9pt; font-family: Consolas, courier; fill: #aaa;" transform="translate(19, -6)" class="timeLabel mono axis">10p</text><text x="836" y="0" style="text-anchor: middle; font-size: 9pt; font-family: Consolas, courier; fill: #aaa;" transform="translate(19, -6)" class="timeLabel mono axis">11p</text><text x="874" y="0" style="text-anchor: middle; font-size: 9pt; font-family: Consolas, courier; fill: #aaa;" transform="translate(19, -6)" class="timeLabel mono axis">12p</text><rect x="0" y="0" rx="4" ry="4" class="hour bordered" width="38" height="38" style="fill: #1d91c0; stroke: #E6E6E6; stroke-width: 2px;"></rect><rect x="38" y="0" rx="4" ry="4" class="hour bordered" width="38" height="38" style="fill: #1d91c0; stroke: #E6E6E6; stroke-width: 2px;"></rect><rect x="76" y="0" rx="4" ry="4" class="hour bordered" width="38" height="38" style="fill: #ffffd9; stroke: #E6E6E6; stroke-width: 2px;"></rect><rect x="114" y="0" rx="4" ry="4" class="hour bordered" width="38" height="38" style="fill: #ffffd9; stroke: #E6E6E6; stroke-width: 2px;"></rect><rect x="152" y="0" rx="4" ry="4" class="hour bordered" width="38" height="38" style="fill: #ffffd9; stroke: #E6E6E6; stroke-width: 2px;"></rect><rect x="190" y="0" rx="4" ry="4" class="hour bordered" width="38" height="38" style="fill: #edf8b1; stroke: #E6E6E6; stroke-width: 2px;"></rect><rect x="228" y="0" rx="4" ry="4" class="hour bordered" width="38" height="38" style="fill: #ffffd9; stroke: #E6E6E6; stroke-width: 2px;"></rect><rect x="266" y="0" rx="4" ry="4" class="hour bordered" width="38" height="38" style="fill: #41b6c4; stroke: #E6E6E6; stroke-width: 2px;"></rect><rect x="304" y="0" rx="4" ry="4" class="hour bordered" width="38" height="38" style="fill: #1d91c0; stroke: #E6E6E6; stroke-width: 2px;"></rect><rect x="342" y="0" rx="4" ry="4" class="hour bordered" width="38" height="38" style="fill: #253494; stroke: #E6E6E6; stroke-width: 2px;"></rect><rect x="380" y="0" rx="4" ry="4" class="hour bordered" width="38" height="38" style="fill: #081d58; stroke: #E6E6E6; stroke-width: 2px;"></rect><rect x="418" y="0" rx="4" ry="4" class="hour bordered" width="38" height="38" style="fill: #081d58; stroke: #E6E6E6; stroke-width: 2px;"></rect><rect x="456" y="0" rx="4" ry="4" class="hour bordered" width="38" height="38" style="fill: #225ea8; stroke: #E6E6E6; stroke-width: 2px;"></rect><rect x="494" y="0" rx="4" ry="4" class="hour bordered" width="38" height="38" style="fill: #081d58; stroke: #E6E6E6; stroke-width: 2px;"></rect><rect x="532" y="0" rx="4" ry="4" class="hour bordered" width="38" height="38" style="fill: #081d58; stroke: #E6E6E6; stroke-width: 2px;"></rect><rect x="570" y="0" rx="4" ry="4" class="hour bordered" width="38" height="38" style="fill: #253494; stroke: #E6E6E6; stroke-width: 2px;"></rect><rect x="608" y="0" rx="4" ry="4" class="hour bordered" width="38" height="38" style="fill: #253494; stroke: #E6E6E6; stroke-width: 2px;"></rect><rect x="646" y="0" rx="4" ry="4" class="hour bordered" width="38" height="38" style="fill: #253494; stroke: #E6E6E6; stroke-width: 2px;"></rect><rect x="684" y="0" rx="4" ry="4" class="hour bordered" width="38" height="38" style="fill: #1d91c0; stroke: #E6E6E6; stroke-width: 2px;"></rect><rect x="722" y="0" rx="4" ry="4" class="hour bordered" width="38" height="38" style="fill: #1d91c0; stroke: #E6E6E6; stroke-width: 2px;"></rect><rect x="760" y="0" rx="4" ry="4" class="hour bordered" width="38" height="38" style="fill: #41b6c4; stroke: #E6E6E6; stroke-width: 2px;"></rect><rect x="798" y="0" rx="4" ry="4" class="hour bordered" width="38" height="38" style="fill: #c7e9b4; stroke: #E6E6E6; stroke-width: 2px;"></rect><rect x="836" y="0" rx="4" ry="4" class="hour bordered" width="38" height="38" style="fill: #ffffd9; stroke: #E6E6E6; stroke-width: 2px;"></rect><rect x="874" y="0" rx="4" ry="4" class="hour bordered" width="38" height="38" style="fill: #41b6c4; stroke: #E6E6E6; stroke-width: 2px;"></rect><rect x="0" y="38" rx="4" ry="4" class="hour bordered" width="38" height="38" style="fill: #7fcdbb; stroke: #E6E6E6; stroke-width: 2px;"></rect><rect x="38" y="38" rx="4" ry="4" class="hour bordered" width="38" height="38" style="fill: #edf8b1; stroke: #E6E6E6; stroke-width: 2px;"></rect><rect x="76" y="38" rx="4" ry="4" class="hour bordered" width="38" height="38" style="fill: #ffffd9; stroke: #E6E6E6; stroke-width: 2px;"></rect><rect x="114" y="38" rx="4" ry="4" class="hour bordered" width="38" height="38" style="fill: #ffffd9; stroke: #E6E6E6; stroke-width: 2px;"></rect><rect x="152" y="38" rx="4" ry="4" class="hour bordered" width="38" height="38" style="fill: #ffffd9; stroke: #E6E6E6; stroke-width: 2px;"></rect><rect x="190" y="38" rx="4" ry="4" class="hour bordered" width="38" height="38" style="fill: #edf8b1; stroke: #E6E6E6; stroke-width: 2px;"></rect><rect x="228" y="38" rx="4" ry="4" class="hour bordered" width="38" height="38" style="fill: #c7e9b4; stroke: #E6E6E6; stroke-width: 2px;"></rect><rect x="266" y="38" rx="4" ry="4" class="hour bordered" width="38" height="38" style="fill: #41b6c4; stroke: #E6E6E6; stroke-width: 2px;"></rect><rect x="304" y="38" rx="4" ry="4" class="hour bordered" width="38" height="38" style="fill: #1d91c0; stroke: #E6E6E6; stroke-width: 2px;"></rect><rect x="342" y="38" rx="4" ry="4" class="hour bordered" width="38" height="38" style="fill: #253494; stroke: #E6E6E6; stroke-width: 2px;"></rect><rect x="380" y="38" rx="4" ry="4" class="hour bordered" width="38" height="38" style="fill: #253494; stroke: #E6E6E6; stroke-width: 2px;"></rect><rect x="418" y="38" rx="4" ry="4" class="hour bordered" width="38" height="38" style="fill: #253494; stroke: #E6E6E6; stroke-width: 2px;"></rect><rect x="456" y="38" rx="4" ry="4" class="hour bordered" width="38" height="38" style="fill: #225ea8; stroke: #E6E6E6; stroke-width: 2px;"></rect><rect x="494" y="38" rx="4" ry="4" class="hour bordered" width="38" height="38" style="fill: #081d58; stroke: #E6E6E6; stroke-width: 2px;"></rect><rect x="532" y="38" rx="4" ry="4" class="hour bordered" width="38" height="38" style="fill: #081d58; stroke: #E6E6E6; stroke-width: 2px;"></rect><rect x="570" y="38" rx="4" ry="4" class="hour bordered" width="38" height="38" style="fill: #253494; stroke: #E6E6E6; stroke-width: 2px;"></rect><rect x="608" y="38" rx="4" ry="4" class="hour bordered" width="38" height="38" style="fill: #081d58; stroke: #E6E6E6; stroke-width: 2px;"></rect><rect x="646" y="38" rx="4" ry="4" class="hour bordered" width="38" height="38" style="fill: #253494; stroke: #E6E6E6; stroke-width: 2px;"></rect><rect x="684" y="38" rx="4" ry="4" class="hour bordered" width="38" height="38" style="fill: #1d91c0; stroke: #E6E6E6; stroke-width: 2px;"></rect><rect x="722" y="38" rx="4" ry="4" class="hour bordered" width="38" height="38" style="fill: #41b6c4; stroke: #E6E6E6; stroke-width: 2px;"></rect><rect x="760" y="38" rx="4" ry="4" class="hour bordered" width="38" height="38" style="fill: #41b6c4; stroke: #E6E6E6; stroke-width: 2px;"></rect><rect x="798" y="38" rx="4" ry="4" class="hour bordered" width="38" height="38" style="fill: #41b6c4; stroke: #E6E6E6; stroke-width: 2px;"></rect><rect x="836" y="38" rx="4" ry="4" class="hour bordered" width="38" height="38" style="fill: #ffffd9; stroke: #E6E6E6; stroke-width: 2px;"></rect><rect x="874" y="38" rx="4" ry="4" class="hour bordered" width="38" height="38" style="fill: #41b6c4; stroke: #E6E6E6; stroke-width: 2px;"></rect><rect x="0" y="76" rx="4" ry="4" class="hour bordered" width="38" height="38" style="fill: #c7e9b4; stroke: #E6E6E6; stroke-width: 2px;"></rect><rect x="38" y="76" rx="4" ry="4" class="hour bordered" width="38" height="38" style="fill: #41b6c4; stroke: #E6E6E6; stroke-width: 2px;"></rect><rect x="76" y="76" rx="4" ry="4" class="hour bordered" width="38" height="38" style="fill: #41b6c4; stroke: #E6E6E6; stroke-width: 2px;"></rect><rect x="114" y="76" rx="4" ry="4" class="hour bordered" width="38" height="38" style="fill: #ffffd9; stroke: #E6E6E6; stroke-width: 2px;"></rect><rect x="152" y="76" rx="4" ry="4" class="hour bordered" width="38" height="38" style="fill: #ffffd9; stroke: #E6E6E6; stroke-width: 2px;"></rect><rect x="190" y="76" rx="4" ry="4" class="hour bordered" width="38" height="38" style="fill: #edf8b1; stroke: #E6E6E6; stroke-width: 2px;"></rect><rect x="228" y="76" rx="4" ry="4" class="hour bordered" width="38" height="38" style="fill: #c7e9b4; stroke: #E6E6E6; stroke-width: 2px;"></rect><rect x="266" y="76" rx="4" ry="4" class="hour bordered" width="38" height="38" style="fill: #41b6c4; stroke: #E6E6E6; stroke-width: 2px;"></rect><rect x="304" y="76" rx="4" ry="4" class="hour bordered" width="38" height="38" style="fill: #225ea8; stroke: #E6E6E6; stroke-width: 2px;"></rect><rect x="342" y="76" rx="4" ry="4" class="hour bordered" width="38" height="38" style="fill: #253494; stroke: #E6E6E6; stroke-width: 2px;"></rect><rect x="380" y="76" rx="4" ry="4" class="hour bordered" width="38" height="38" style="fill: #253494; stroke: #E6E6E6; stroke-width: 2px;"></rect><rect x="418" y="76" rx="4" ry="4" class="hour bordered" width="38" height="38" style="fill: #253494; stroke: #E6E6E6; stroke-width: 2px;"></rect><rect x="456" y="76" rx="4" ry="4" class="hour bordered" width="38" height="38" style="fill: #225ea8; stroke: #E6E6E6; stroke-width: 2px;"></rect><rect x="494" y="76" rx="4" ry="4" class="hour bordered" width="38" height="38" style="fill: #253494; stroke: #E6E6E6; stroke-width: 2px;"></rect><rect x="532" y="76" rx="4" ry="4" class="hour bordered" width="38" height="38" style="fill: #253494; stroke: #E6E6E6; stroke-width: 2px;"></rect><rect x="570" y="76" rx="4" ry="4" class="hour bordered" width="38" height="38" style="fill: #081d58; stroke: #E6E6E6; stroke-width: 2px;"></rect><rect x="608" y="76" rx="4" ry="4" class="hour bordered" width="38" height="38" style="fill: #081d58; stroke: #E6E6E6; stroke-width: 2px;"></rect><rect x="646" y="76" rx="4" ry="4" class="hour bordered" width="38" height="38" style="fill: #253494; stroke: #E6E6E6; stroke-width: 2px;"></rect><rect x="684" y="76" rx="4" ry="4" class="hour bordered" width="38" height="38" style="fill: #1d91c0; stroke: #E6E6E6; stroke-width: 2px;"></rect><rect x="722" y="76" rx="4" ry="4" class="hour bordered" width="38" height="38" style="fill: #1d91c0; stroke: #E6E6E6; stroke-width: 2px;"></rect><rect x="760" y="76" rx="4" ry="4" class="hour bordered" width="38" height="38" style="fill: #41b6c4; stroke: #E6E6E6; stroke-width: 2px;"></rect><rect x="798" y="76" rx="4" ry="4" class="hour bordered" width="38" height="38" style="fill: #c7e9b4; stroke: #E6E6E6; stroke-width: 2px;"></rect><rect x="836" y="76" rx="4" ry="4" class="hour bordered" width="38" height="38" style="fill: #c7e9b4; stroke: #E6E6E6; stroke-width: 2px;"></rect><rect x="874" y="76" rx="4" ry="4" class="hour bordered" width="38" height="38" style="fill: #7fcdbb; stroke: #E6E6E6; stroke-width: 2px;"></rect><rect x="0" y="114" rx="4" ry="4" class="hour bordered" width="38" height="38" style="fill: #ffffd9; stroke: #E6E6E6; stroke-width: 2px;"></rect><rect x="38" y="114" rx="4" ry="4" class="hour bordered" width="38" height="38" style="fill: #ffffd9; stroke: #E6E6E6; stroke-width: 2px;"></rect><rect x="76" y="114" rx="4" ry="4" class="hour bordered" width="38" height="38" style="fill: #ffffd9; stroke: #E6E6E6; stroke-width: 2px;"></rect><rect x="114" y="114" rx="4" ry="4" class="hour bordered" width="38" height="38" style="fill: #ffffd9; stroke: #E6E6E6; stroke-width: 2px;"></rect><rect x="152" y="114" rx="4" ry="4" class="hour bordered" width="38" height="38" style="fill: #ffffd9; stroke: #E6E6E6; stroke-width: 2px;"></rect><rect x="190" y="114" rx="4" ry="4" class="hour bordered" width="38" height="38" style="fill: #edf8b1; stroke: #E6E6E6; stroke-width: 2px;"></rect><rect x="228" y="114" rx="4" ry="4" class="hour bordered" width="38" height="38" style="fill: #c7e9b4; stroke: #E6E6E6; stroke-width: 2px;"></rect><rect x="266" y="114" rx="4" ry="4" class="hour bordered" width="38" height="38" style="fill: #41b6c4; stroke: #E6E6E6; stroke-width: 2px;"></rect><rect x="304" y="114" rx="4" ry="4" class="hour bordered" width="38" height="38" style="fill: #1d91c0; stroke: #E6E6E6; stroke-width: 2px;"></rect><rect x="342" y="114" rx="4" ry="4" class="hour bordered" width="38" height="38" style="fill: #081d58; stroke: #E6E6E6; stroke-width: 2px;"></rect><rect x="380" y="114" rx="4" ry="4" class="hour bordered" width="38" height="38" style="fill: #081d58; stroke: #E6E6E6; stroke-width: 2px;"></rect><rect x="418" y="114" rx="4" ry="4" class="hour bordered" width="38" height="38" style="fill: #081d58; stroke: #E6E6E6; stroke-width: 2px;"></rect><rect x="456" y="114" rx="4" ry="4" class="hour bordered" width="38" height="38" style="fill: #253494; stroke: #E6E6E6; stroke-width: 2px;"></rect><rect x="494" y="114" rx="4" ry="4" class="hour bordered" width="38" height="38" style="fill: #253494; stroke: #E6E6E6; stroke-width: 2px;"></rect><rect x="532" y="114" rx="4" ry="4" class="hour bordered" width="38" height="38" style="fill: #081d58; stroke: #E6E6E6; stroke-width: 2px;"></rect><rect x="570" y="114" rx="4" ry="4" class="hour bordered" width="38" height="38" style="fill: #253494; stroke: #E6E6E6; stroke-width: 2px;"></rect><rect x="608" y="114" rx="4" ry="4" class="hour bordered" width="38" height="38" style="fill: #253494; stroke: #E6E6E6; stroke-width: 2px;"></rect><rect x="646" y="114" rx="4" ry="4" class="hour bordered" width="38" height="38" style="fill: #253494; stroke: #E6E6E6; stroke-width: 2px;"></rect><rect x="684" y="114" rx="4" ry="4" class="hour bordered" width="38" height="38" style="fill: #1d91c0; stroke: #E6E6E6; stroke-width: 2px;"></rect><rect x="722" y="114" rx="4" ry="4" class="hour bordered" width="38" height="38" style="fill: #edf8b1; stroke: #E6E6E6; stroke-width: 2px;"></rect><rect x="760" y="114" rx="4" ry="4" class="hour bordered" width="38" height="38" style="fill: #41b6c4; stroke: #E6E6E6; stroke-width: 2px;"></rect><rect x="798" y="114" rx="4" ry="4" class="hour bordered" width="38" height="38" style="fill: #41b6c4; stroke: #E6E6E6; stroke-width: 2px;"></rect><rect x="836" y="114" rx="4" ry="4" class="hour bordered" width="38" height="38" style="fill: #edf8b1; stroke: #E6E6E6; stroke-width: 2px;"></rect><rect x="874" y="114" rx="4" ry="4" class="hour bordered" width="38" height="38" style="fill: #41b6c4; stroke: #E6E6E6; stroke-width: 2px;"></rect><rect x="0" y="152" rx="4" ry="4" class="hour bordered" width="38" height="38" style="fill: #edf8b1; stroke: #E6E6E6; stroke-width: 2px;"></rect><rect x="38" y="152" rx="4" ry="4" class="hour bordered" width="38" height="38" style="fill: #ffffd9; stroke: #E6E6E6; stroke-width: 2px;"></rect><rect x="76" y="152" rx="4" ry="4" class="hour bordered" width="38" height="38" style="fill: #41b6c4; stroke: #E6E6E6; stroke-width: 2px;"></rect><rect x="114" y="152" rx="4" ry="4" class="hour bordered" width="38" height="38" style="fill: #edf8b1; stroke: #E6E6E6; stroke-width: 2px;"></rect><rect x="152" y="152" rx="4" ry="4" class="hour bordered" width="38" height="38" style="fill: #ffffd9; stroke: #E6E6E6; stroke-width: 2px;"></rect><rect x="190" y="152" rx="4" ry="4" class="hour bordered" width="38" height="38" style="fill: #edf8b1; stroke: #E6E6E6; stroke-width: 2px;"></rect><rect x="228" y="152" rx="4" ry="4" class="hour bordered" width="38" height="38" style="fill: #c7e9b4; stroke: #E6E6E6; stroke-width: 2px;"></rect><rect x="266" y="152" rx="4" ry="4" class="hour bordered" width="38" height="38" style="fill: #41b6c4; stroke: #E6E6E6; stroke-width: 2px;"></rect><rect x="304" y="152" rx="4" ry="4" class="hour bordered" width="38" height="38" style="fill: #225ea8; stroke: #E6E6E6; stroke-width: 2px;"></rect><rect x="342" y="152" rx="4" ry="4" class="hour bordered" width="38" height="38" style="fill: #253494; stroke: #E6E6E6; stroke-width: 2px;"></rect><rect x="380" y="152" rx="4" ry="4" class="hour bordered" width="38" height="38" style="fill: #253494; stroke: #E6E6E6; stroke-width: 2px;"></rect><rect x="418" y="152" rx="4" ry="4" class="hour bordered" width="38" height="38" style="fill: #253494; stroke: #E6E6E6; stroke-width: 2px;"></rect><rect x="456" y="152" rx="4" ry="4" class="hour bordered" width="38" height="38" style="fill: #081d58; stroke: #E6E6E6; stroke-width: 2px;"></rect><rect x="494" y="152" rx="4" ry="4" class="hour bordered" width="38" height="38" style="fill: #253494; stroke: #E6E6E6; stroke-width: 2px;"></rect><rect x="532" y="152" rx="4" ry="4" class="hour bordered" width="38" height="38" style="fill: #253494; stroke: #E6E6E6; stroke-width: 2px;"></rect><rect x="570" y="152" rx="4" ry="4" class="hour bordered" width="38" height="38" style="fill: #081d58; stroke: #E6E6E6; stroke-width: 2px;"></rect><rect x="608" y="152" rx="4" ry="4" class="hour bordered" width="38" height="38" style="fill: #253494; stroke: #E6E6E6; stroke-width: 2px;"></rect><rect x="646" y="152" rx="4" ry="4" class="hour bordered" width="38" height="38" style="fill: #1d91c0; stroke: #E6E6E6; stroke-width: 2px;"></rect><rect x="684" y="152" rx="4" ry="4" class="hour bordered" width="38" height="38" style="fill: #41b6c4; stroke: #E6E6E6; stroke-width: 2px;"></rect><rect x="722" y="152" rx="4" ry="4" class="hour bordered" width="38" height="38" style="fill: #7fcdbb; stroke: #E6E6E6; stroke-width: 2px;"></rect><rect x="760" y="152" rx="4" ry="4" class="hour bordered" width="38" height="38" style="fill: #41b6c4; stroke: #E6E6E6; stroke-width: 2px;"></rect><rect x="798" y="152" rx="4" ry="4" class="hour bordered" width="38" height="38" style="fill: #7fcdbb; stroke: #E6E6E6; stroke-width: 2px;"></rect><rect x="836" y="152" rx="4" ry="4" class="hour bordered" width="38" height="38" style="fill: #ffffd9; stroke: #E6E6E6; stroke-width: 2px;"></rect><rect x="874" y="152" rx="4" ry="4" class="hour bordered" width="38" height="38" style="fill: #41b6c4; stroke: #E6E6E6; stroke-width: 2px;"></rect><rect x="0" y="190" rx="4" ry="4" class="hour bordered" width="38" height="38" style="fill: #edf8b1; stroke: #E6E6E6; stroke-width: 2px;"></rect><rect x="38" y="190" rx="4" ry="4" class="hour bordered" width="38" height="38" style="fill: #ffffd9; stroke: #E6E6E6; stroke-width: 2px;"></rect><rect x="76" y="190" rx="4" ry="4" class="hour bordered" width="38" height="38" style="fill: #edf8b1; stroke: #E6E6E6; stroke-width: 2px;"></rect><rect x="114" y="190" rx="4" ry="4" class="hour bordered" width="38" height="38" style="fill: #ffffd9; stroke: #E6E6E6; stroke-width: 2px;"></rect><rect x="152" y="190" rx="4" ry="4" class="hour bordered" width="38" height="38" style="fill: #ffffd9; stroke: #E6E6E6; stroke-width: 2px;"></rect><rect x="190" y="190" rx="4" ry="4" class="hour bordered" width="38" height="38" style="fill: #ffffd9; stroke: #E6E6E6; stroke-width: 2px;"></rect><rect x="228" y="190" rx="4" ry="4" class="hour bordered" width="38" height="38" style="fill: #c7e9b4; stroke: #E6E6E6; stroke-width: 2px;"></rect><rect x="266" y="190" rx="4" ry="4" class="hour bordered" width="38" height="38" style="fill: #41b6c4; stroke: #E6E6E6; stroke-width: 2px;"></rect><rect x="304" y="190" rx="4" ry="4" class="hour bordered" width="38" height="38" style="fill: #41b6c4; stroke: #E6E6E6; stroke-width: 2px;"></rect><rect x="342" y="190" rx="4" ry="4" class="hour bordered" width="38" height="38" style="fill: #7fcdbb; stroke: #E6E6E6; stroke-width: 2px;"></rect><rect x="380" y="190" rx="4" ry="4" class="hour bordered" width="38" height="38" style="fill: #41b6c4; stroke: #E6E6E6; stroke-width: 2px;"></rect><rect x="418" y="190" rx="4" ry="4" class="hour bordered" width="38" height="38" style="fill: #41b6c4; stroke: #E6E6E6; stroke-width: 2px;"></rect><rect x="456" y="190" rx="4" ry="4" class="hour bordered" width="38" height="38" style="fill: #41b6c4; stroke: #E6E6E6; stroke-width: 2px;"></rect><rect x="494" y="190" rx="4" ry="4" class="hour bordered" width="38" height="38" style="fill: #41b6c4; stroke: #E6E6E6; stroke-width: 2px;"></rect><rect x="532" y="190" rx="4" ry="4" class="hour bordered" width="38" height="38" style="fill: #ffffd9; stroke: #E6E6E6; stroke-width: 2px;"></rect><rect x="570" y="190" rx="4" ry="4" class="hour bordered" width="38" height="38" style="fill: #c7e9b4; stroke: #E6E6E6; stroke-width: 2px;"></rect><rect x="608" y="190" rx="4" ry="4" class="hour bordered" width="38" height="38" style="fill: #7fcdbb; stroke: #E6E6E6; stroke-width: 2px;"></rect><rect x="646" y="190" rx="4" ry="4" class="hour bordered" width="38" height="38" style="fill: #7fcdbb; stroke: #E6E6E6; stroke-width: 2px;"></rect><rect x="684" y="190" rx="4" ry="4" class="hour bordered" width="38" height="38" style="fill: #ffffd9; stroke: #E6E6E6; stroke-width: 2px;"></rect><rect x="722" y="190" rx="4" ry="4" class="hour bordered" width="38" height="38" style="fill: #ffffd9; stroke: #E6E6E6; stroke-width: 2px;"></rect><rect x="760" y="190" rx="4" ry="4" class="hour bordered" width="38" height="38" style="fill: #ffffd9; stroke: #E6E6E6; stroke-width: 2px;"></rect><rect x="798" y="190" rx="4" ry="4" class="hour bordered" width="38" height="38" style="fill: #ffffd9; stroke: #E6E6E6; stroke-width: 2px;"></rect><rect x="836" y="190" rx="4" ry="4" class="hour bordered" width="38" height="38" style="fill: #ffffd9; stroke: #E6E6E6; stroke-width: 2px;"></rect><rect x="874" y="190" rx="4" ry="4" class="hour bordered" width="38" height="38" style="fill: #ffffd9; stroke: #E6E6E6; stroke-width: 2px;"></rect><rect x="0" y="228" rx="4" ry="4" class="hour bordered" width="38" height="38" style="fill: #7fcdbb; stroke: #E6E6E6; stroke-width: 2px;"></rect><rect x="38" y="228" rx="4" ry="4" class="hour bordered" width="38" height="38" style="fill: #7fcdbb; stroke: #E6E6E6; stroke-width: 2px;"></rect><rect x="76" y="228" rx="4" ry="4" class="hour bordered" width="38" height="38" style="fill: #ffffd9; stroke: #E6E6E6; stroke-width: 2px;"></rect><rect x="114" y="228" rx="4" ry="4" class="hour bordered" width="38" height="38" style="fill: #ffffd9; stroke: #E6E6E6; stroke-width: 2px;"></rect><rect x="152" y="228" rx="4" ry="4" class="hour bordered" width="38" height="38" style="fill: #ffffd9; stroke: #E6E6E6; stroke-width: 2px;"></rect><rect x="190" y="228" rx="4" ry="4" class="hour bordered" width="38" height="38" style="fill: #ffffd9; stroke: #E6E6E6; stroke-width: 2px;"></rect><rect x="228" y="228" rx="4" ry="4" class="hour bordered" width="38" height="38" style="fill: #ffffd9; stroke: #E6E6E6; stroke-width: 2px;"></rect><rect x="266" y="228" rx="4" ry="4" class="hour bordered" width="38" height="38" style="fill: #ffffd9; stroke: #E6E6E6; stroke-width: 2px;"></rect><rect x="304" y="228" rx="4" ry="4" class="hour bordered" width="38" height="38" style="fill: #ffffd9; stroke: #E6E6E6; stroke-width: 2px;"></rect><rect x="342" y="228" rx="4" ry="4" class="hour bordered" width="38" height="38" style="fill: #ffffd9; stroke: #E6E6E6; stroke-width: 2px;"></rect><rect x="380" y="228" rx="4" ry="4" class="hour bordered" width="38" height="38" style="fill: #edf8b1; stroke: #E6E6E6; stroke-width: 2px;"></rect><rect x="418" y="228" rx="4" ry="4" class="hour bordered" width="38" height="38" style="fill: #edf8b1; stroke: #E6E6E6; stroke-width: 2px;"></rect><rect x="456" y="228" rx="4" ry="4" class="hour bordered" width="38" height="38" style="fill: #c7e9b4; stroke: #E6E6E6; stroke-width: 2px;"></rect><rect x="494" y="228" rx="4" ry="4" class="hour bordered" width="38" height="38" style="fill: #7fcdbb; stroke: #E6E6E6; stroke-width: 2px;"></rect><rect x="532" y="228" rx="4" ry="4" class="hour bordered" width="38" height="38" style="fill: #ffffd9; stroke: #E6E6E6; stroke-width: 2px;"></rect><rect x="570" y="228" rx="4" ry="4" class="hour bordered" width="38" height="38" style="fill: #c7e9b4; stroke: #E6E6E6; stroke-width: 2px;"></rect><rect x="608" y="228" rx="4" ry="4" class="hour bordered" width="38" height="38" style="fill: #ffffd9; stroke: #E6E6E6; stroke-width: 2px;"></rect><rect x="646" y="228" rx="4" ry="4" class="hour bordered" width="38" height="38" style="fill: #edf8b1; stroke: #E6E6E6; stroke-width: 2px;"></rect><rect x="684" y="228" rx="4" ry="4" class="hour bordered" width="38" height="38" style="fill: #41b6c4; stroke: #E6E6E6; stroke-width: 2px;"></rect><rect x="722" y="228" rx="4" ry="4" class="hour bordered" width="38" height="38" style="fill: #7fcdbb; stroke: #E6E6E6; stroke-width: 2px;"></rect><rect x="760" y="228" rx="4" ry="4" class="hour bordered" width="38" height="38" style="fill: #ffffd9; stroke: #E6E6E6; stroke-width: 2px;"></rect><rect x="798" y="228" rx="4" ry="4" class="hour bordered" width="38" height="38" style="fill: #1d91c0; stroke: #E6E6E6; stroke-width: 2px;"></rect><rect x="836" y="228" rx="4" ry="4" class="hour bordered" width="38" height="38" style="fill: #41b6c4; stroke: #E6E6E6; stroke-width: 2px;"></rect><rect x="874" y="228" rx="4" ry="4" class="hour bordered" width="38" height="38" style="fill: #c7e9b4; stroke: #E6E6E6; stroke-width: 2px;"></rect><g class="legend"><rect x="0" y="280" width="76" height="19" style="fill: #ffffd9;"></rect><text class="mono" x="0" y="318" style="font-size: 9pt; font-family: Consolas, courier; fill: #aaa;">≥ 0</text></g><g class="legend"><rect x="76" y="280" width="76" height="19" style="fill: #edf8b1;"></rect><text class="mono" x="76" y="318" style="font-size: 9pt; font-family: Consolas, courier; fill: #aaa;">≥ 2</text></g><g class="legend"><rect x="152" y="280" width="76" height="19" style="fill: #c7e9b4;"></rect><text class="mono" x="152" y="318" style="font-size: 9pt; font-family: Consolas, courier; fill: #aaa;">≥ 4</text></g><g class="legend"><rect x="228" y="280" width="76" height="19" style="fill: #7fcdbb;"></rect><text class="mono" x="228" y="318" style="font-size: 9pt; font-family: Consolas, courier; fill: #aaa;">≥ 5</text></g><g class="legend"><rect x="304" y="280" width="76" height="19" style="fill: #41b6c4;"></rect><text class="mono" x="304" y="318" style="font-size: 9pt; font-family: Consolas, courier; fill: #aaa;">≥ 7</text></g><g class="legend"><rect x="380" y="280" width="76" height="19" style="fill: #1d91c0;"></rect><text class="mono" x="380" y="318" style="font-size: 9pt; font-family: Consolas, courier; fill: #aaa;">≥ 15</text></g><g class="legend"><rect x="456" y="280" width="76" height="19" style="fill: #225ea8;"></rect><text class="mono" x="456" y="318" style="font-size: 9pt; font-family: Consolas, courier; fill: #aaa;">≥ 29</text></g><g class="legend"><rect x="532" y="280" width="76" height="19" style="fill: #253494;"></rect><text class="mono" x="532" y="318" style="font-size: 9pt; font-family: Consolas, courier; fill: #aaa;">≥ 42</text></g><g class="legend"><rect x="608" y="280" width="76" height="19" style="fill: #081d58;"></rect><text class="mono" x="608" y="318" style="font-size: 9pt; font-family: Consolas, courier; fill: #aaa;">≥ 56</text></g></g></svg>